<svg width="32" height="32" viewBox="0 0 32 32" fill="none" xmlns="http://www.w3.org/2000/svg">
<path fill-rule="evenodd" clip-rule="evenodd" d="M16.0015 0C11.6561 0 11.1108 0.0190002 9.4041 0.0966677C7.70075 0.174668 6.53807 0.444338 5.52072 0.840009C4.46838 1.24868 3.5757 1.79535 2.68636 2.68503C1.79635 3.57437 1.24968 4.46705 0.839675 5.51906C0.443005 6.53673 0.173002 7.69975 0.0963343 9.40243C0.0200002 11.1091 0 11.6548 0 16.0002C0 20.3455 0.0193335 20.8892 0.0966677 22.5959C0.175002 24.2993 0.444671 25.4619 0.840009 26.4793C1.24901 27.5316 1.79569 28.4243 2.68536 29.3136C3.57437 30.2036 4.46705 30.7517 5.51872 31.1603C6.53673 31.556 7.69975 31.8257 9.40276 31.9037C11.1094 31.9813 11.6545 32.0003 15.9995 32.0003C20.3452 32.0003 20.8889 31.9813 22.5956 31.9037C24.2989 31.8257 25.4629 31.556 26.4809 31.1603C27.533 30.7517 28.4243 30.2036 29.3133 29.3136C30.2033 28.4243 30.75 27.5316 31.16 26.4796C31.5533 25.4619 31.8233 24.2989 31.9033 22.5962C31.98 20.8896 32 20.3455 32 16.0002C32 11.6548 31.98 11.1094 31.9033 9.40276C31.8233 7.69941 31.5533 6.53674 31.16 5.51939C30.75 4.46705 30.2033 3.57437 29.3133 2.68503C28.4233 1.79502 27.5333 1.24835 26.4799 0.840009C25.4599 0.444338 24.2966 0.174668 22.5932 0.0966677C20.8866 0.0190002 20.3432 0 15.9965 0H16.0015ZM14.5662 2.88339C14.9922 2.88273 15.4676 2.88339 16.0016 2.88339C20.2736 2.88339 20.78 2.89873 22.467 2.9754C24.027 3.04673 24.8737 3.3074 25.4377 3.5264C26.1843 3.8164 26.7167 4.16307 27.2764 4.72308C27.8364 5.28309 28.183 5.81643 28.4737 6.5631C28.6927 7.12644 28.9537 7.97311 29.0247 9.53313C29.1014 11.2198 29.118 11.7265 29.118 15.9965C29.118 20.2666 29.1014 20.7732 29.0247 22.4599C28.9534 24.0199 28.6927 24.8666 28.4737 25.43C28.1837 26.1766 27.8364 26.7083 27.2764 27.268C26.7163 27.828 26.1847 28.1747 25.4377 28.4647C24.8743 28.6847 24.027 28.9447 22.467 29.016C20.7803 29.0927 20.2736 29.1093 16.0016 29.1093C11.7292 29.1093 11.2229 29.0927 9.53617 29.016C7.97615 28.944 7.12948 28.6833 6.56514 28.4643C5.81846 28.1743 5.28512 27.8277 4.72512 27.2676C4.16511 26.7076 3.81844 26.1756 3.52777 25.4286C3.30877 24.8653 3.04777 24.0186 2.97677 22.4586C2.9001 20.7719 2.88477 20.2652 2.88477 15.9925C2.88477 11.7198 2.9001 11.2158 2.97677 9.52913C3.0481 7.96911 3.30877 7.12244 3.52777 6.55843C3.81778 5.81176 4.16511 5.27842 4.72512 4.71841C5.28512 4.15841 5.81846 3.81174 6.56514 3.52107C7.12914 3.30107 7.97615 3.04106 9.53617 2.9694C11.0122 2.90273 11.5842 2.88273 14.5662 2.87939V2.88339ZM24.5423 5.5401C23.4823 5.5401 22.6223 6.3991 22.6223 7.45945C22.6223 8.51946 23.4823 9.37947 24.5423 9.37947C25.6023 9.37947 26.4624 8.51946 26.4624 7.45945C26.4624 6.39944 25.6023 5.53943 24.5423 5.53943V5.5401ZM16.0014 7.78345C11.4637 7.78345 7.78467 11.4625 7.78467 16.0002C7.78467 20.5379 11.4637 24.2153 16.0014 24.2153C20.5391 24.2153 24.2168 20.5379 24.2168 16.0002C24.2168 11.4625 20.5388 7.78345 16.0011 7.78345H16.0014ZM16.0016 10.6667C18.947 10.6667 21.335 13.0544 21.335 16.0001C21.335 18.9455 18.947 21.3335 16.0016 21.3335C13.0559 21.3335 10.6682 18.9455 10.6682 16.0001C10.6682 13.0544 13.0559 10.6667 16.0016 10.6667Z" fill="#DF26BA"/>
</svg>
